<svg xmlns="http://www.w3.org/2000/svg" width="14" height="18" viewBox="0 0 14 18">
  <g id="Inteligentny_obiekt_wektorowy" data-name="Inteligentny obiekt wektorowy" transform="translate(-1273 -1449)">
    <g id="Inteligentny_obiekt_wektorowy-2" data-name="Inteligentny obiekt wektorowy" transform="translate(902.181 -91.754)">
      <path id="Path_7" data-name="Path 7" d="M373.823,1558.64a.139.139,0,0,0,.247.059,11.01,11.01,0,0,0,1.875-3.383c.127-.461.73-2.842.73-2.842a2.985,2.985,0,0,0,2.539,1.288c3.339,0,5.6-3.03,5.6-7.086,0-3.067-2.61-5.923-6.577-5.923-4.934,0-7.423,3.522-7.423,6.459,0,1.778.677,3.359,2.126,3.95a.358.358,0,0,0,.52-.26c.048-.181.162-.638.213-.83a.5.5,0,0,0-.15-.575,2.971,2.971,0,0,1-.686-2.027,4.908,4.908,0,0,1,5.114-4.952c2.789,0,4.322,1.7,4.322,3.961,0,2.982-1.326,5.5-3.292,5.5a1.6,1.6,0,0,1-1.641-1.991,22.008,22.008,0,0,0,.918-3.668,1.387,1.387,0,0,0-1.4-1.552c-1.111,0-2,1.143-2,2.675a3.955,3.955,0,0,0,.332,1.636l-1.336,5.634a11.561,11.561,0,0,0-.032,3.929" fill="#fff"/>
    </g>
    <g id="Inteligentny_obiekt_wektorowy-3" data-name="Inteligentny obiekt wektorowy" transform="translate(1273 1449)">
      <path id="Path_8" data-name="Path 8" d="M373.823,1558.64a.139.139,0,0,0,.247.059,11.01,11.01,0,0,0,1.875-3.383c.127-.461.73-2.842.73-2.842a2.985,2.985,0,0,0,2.539,1.288c3.339,0,5.6-3.03,5.6-7.086,0-3.067-2.61-5.923-6.577-5.923-4.934,0-7.423,3.522-7.423,6.459,0,1.778.677,3.359,2.126,3.95a.358.358,0,0,0,.52-.26c.048-.181.162-.638.213-.83a.5.5,0,0,0-.15-.575,2.971,2.971,0,0,1-.686-2.027,4.908,4.908,0,0,1,5.114-4.952c2.789,0,4.322,1.7,4.322,3.961,0,2.982-1.326,5.5-3.292,5.5a1.6,1.6,0,0,1-1.641-1.991,22.008,22.008,0,0,0,.918-3.668,1.387,1.387,0,0,0-1.4-1.552c-1.111,0-2,1.143-2,2.675a3.955,3.955,0,0,0,.332,1.636l-1.336,5.634a11.561,11.561,0,0,0-.032,3.929" transform="translate(-370.819 -1540.754)" fill="#efefef"/>
    </g>
  </g>
</svg>
