<svg xmlns="http://www.w3.org/2000/svg" width="18" height="18" viewBox="0 0 18 18">
  <defs>
    <style>
      .cls-1 {
        fill: #fff;
      }
    </style>
  </defs>
  <path id="Path_3" data-name="Path 3" class="cls-1" d="M860.335,1540.746H849.292a3.481,3.481,0,0,0-3.478,3.478v11.044a3.481,3.481,0,0,0,3.478,3.478h11.043a3.482,3.482,0,0,0,3.479-3.478v-11.044a3.483,3.483,0,0,0-3.479-3.478m1,2.075.4,0v3.05l-3.04.011-.01-3.05Zm-9.088,5.078a3.162,3.162,0,1,1-.6,1.847,3.166,3.166,0,0,1,.6-1.847m9.816,7.369a1.727,1.727,0,0,1-1.726,1.725H849.292a1.726,1.726,0,0,1-1.725-1.725V1547.9h2.687a4.923,4.923,0,1,0,9.118,0h2.689Z" transform="translate(-845.814 -1540.746)"/>
</svg>
