<svg xmlns="http://www.w3.org/2000/svg" width="18" height="14" viewBox="0 0 18 14">
  <defs>
    <style>
      .cls-1 {
        fill: #efefef;
      }
    </style>
  </defs>
  <path id="Path_6" data-name="Path 6" class="cls-1" d="M241.695,1450.956a7.6,7.6,0,0,1-2.346.858,3.765,3.765,0,0,0-2.695-1.117,3.616,3.616,0,0,0-3.693,3.535,3.446,3.446,0,0,0,.1.806,10.647,10.647,0,0,1-7.611-3.693,3.4,3.4,0,0,0-.5,1.777,3.5,3.5,0,0,0,1.643,2.941,3.819,3.819,0,0,1-1.673-.441v.044a3.581,3.581,0,0,0,2.964,3.466,3.892,3.892,0,0,1-1.668.061,3.681,3.681,0,0,0,3.45,2.454,7.625,7.625,0,0,1-4.587,1.513,8.013,8.013,0,0,1-.881-.05,10.809,10.809,0,0,0,5.662,1.587,10.2,10.2,0,0,0,10.506-10.055c0-.153,0-.306-.009-.457a7.308,7.308,0,0,0,1.842-1.83,7.581,7.581,0,0,1-2.121.557,3.573,3.573,0,0,0,1.624-1.955" transform="translate(-224.191 -1450.697)"/>
</svg>
